<svg id="Layer_1" data-name="Layer 1" xmlns="http://www.w3.org/2000/svg" viewBox="0 0 46.91 190.33"><path id="Icon_material-settings" data-name="Icon material-settings" d="M308.79,324a10.85,10.85,0,0,0,0-2.94l3.16-2.47a.76.76,0,0,0,.18-1l-3-5.19a.74.74,0,0,0-.91-.33l-3.74,1.5a10.51,10.51,0,0,0-2.53-1.47l-.57-4a.74.74,0,0,0-.74-.63h-6a.73.73,0,0,0-.73.63l-.57,4a11.44,11.44,0,0,0-2.53,1.47l-3.74-1.5a.72.72,0,0,0-.91.33l-3,5.19a.73.73,0,0,0,.18,1L286.5,321a9.88,9.88,0,0,0,0,2.94l-3.17,2.48a.75.75,0,0,0-.18,1l3,5.19a.78.78,0,0,0,.92.33l3.73-1.5a11.28,11.28,0,0,0,2.54,1.47l.57,4a.72.72,0,0,0,.73.63h6a.73.73,0,0,0,.74-.63l.57-4a11.85,11.85,0,0,0,2.53-1.47l3.74,1.5a.74.74,0,0,0,.91-.33l3-5.19a.75.75,0,0,0-.18-1Zm-11.15,3.78a5.25,5.25,0,1,1,5.25-5.25h0A5.25,5.25,0,0,1,297.64,327.76Z" transform="translate(-274.19 -307.51)"/><g id="Icon_ionic-ios-notifications" data-name="Icon ionic-ios-notifications"><path id="Caminho_10" data-name="Caminho 10" d="M294.08,420.94c2.19,0,3.39-1.54,3.39-3.72h-6.78C290.69,419.4,291.89,420.94,294.08,420.94Z" transform="translate(-274.19 -307.51)"/><path id="Caminho_11" data-name="Caminho 11" d="M305.06,413.65c-1.08-1.43-3.21-2.27-3.21-8.66,0-6.56-2.9-9.2-5.6-9.83-.26-.06-.44-.15-.44-.41v-.2a1.72,1.72,0,0,0-3.43-.09v.29c0,.26-.18.35-.44.41-2.7.64-5.6,3.27-5.6,9.83,0,6.39-2.13,7.22-3.21,8.66a1.4,1.4,0,0,0,1.12,2.23H304a1.39,1.39,0,0,0,1.11-2.23Z" transform="translate(-274.19 -307.51)"/></g><path id="Icon_zocial-persona" data-name="Icon zocial-persona" d="M293.45,490.15a87.71,87.71,0,0,1-9.73-.33s.38-5.8,3-6.85,3.31-.9,4.23-1.45l.06,0v-1.56a7.25,7.25,0,0,1-2-3.28,2.57,2.57,0,0,1-.75-1.77,2.35,2.35,0,0,1,.37-1.26c.15-3.27,2.24-5.44,4.78-5.44s4.64,2.17,4.79,5.44a2.35,2.35,0,0,1,.37,1.26,2.62,2.62,0,0,1-.76,1.77,7.08,7.08,0,0,1-2,3.28v1.56l.07,0c.93.55,1.58.41,4.23,1.45s3,6.85,3,6.85a88,88,0,0,1-9.74.33m12.23-28.3H275.9a1.71,1.71,0,0,0-1.71,1.71h0v32.55a1.71,1.71,0,0,0,1.71,1.72h29.78l15.41-18-15.41-18Z" transform="translate(-274.19 -307.51)"/></svg>